<?xml version="1.0" standalone="no"?>
<!DOCTYPE svg PUBLIC "-//W3C//DTD SVG 20010904//EN"
 "http://www.w3.org/TR/2001/REC-SVG-20010904/DTD/svg10.dtd">
<svg version="1.0" xmlns="http://www.w3.org/2000/svg"
 width="348.000000pt" height="348.000000pt" viewBox="0 0 348.000000 348.000000"
 preserveAspectRatio="xMidYMid meet">

<g transform="translate(0.000000,348.000000) scale(0.100000,-0.100000)"
fill="#000000" stroke="none">
<path d="M0 1740 l0 -1740 1740 0 1740 0 0 1740 0 1740 -1740 0 -1740 0 0
-1740z m3450 0 l0 -1710 -1710 0 -1710 0 0 1710 0 1710 1710 0 1710 0 0 -1710z"/>
<path d="M90 3015 l0 -285 465 0 465 0 0 285 0 285 -465 0 -465 0 0 -285z
m180 262 c0 -1 -36 -38 -80 -82 l-80 -80 0 83 0 82 80 0 c44 0 80 -1 80 -3z
m305 -47 c-30 -31 -64 -54 -86 -60 -63 -17 -119 -77 -119 -127 0 -10 -58 -77
-130 -148 l-130 -130 0 160 0 160 97 97 98 98 159 0 160 0 -49 -50z m270 -90
l-140 -140 -9 37 c-12 51 -50 101 -94 121 -21 9 -39 18 -41 19 -3 2 17 26 44
53 l49 50 165 0 166 0 -140 -140z m63 -297 l-93 -93 -164 0 -164 0 254 255
254 255 3 -162 3 -162 -93 -93z m-483 49 c32 -26 100 -46 124 -37 9 3 -9 -19
-39 -49 l-54 -56 -166 0 -165 0 119 119 120 120 17 -38 c9 -21 29 -47 44 -59z
m575 -62 l0 -80 -82 0 -83 0 80 80 c44 44 81 80 82 80 2 0 3 -36 3 -80z"/>
<path d="M2460 3015 l0 -285 470 0 470 0 0 285 0 285 -470 0 -470 0 0 -285z
m190 262 c0 -1 -36 -38 -80 -82 l-80 -80 0 83 0 82 80 0 c44 0 80 -1 80 -3z
m310 -43 c-25 -25 -65 -56 -90 -69 -52 -26 -70 -45 -98 -100 -11 -22 -79 -98
-151 -170 l-131 -130 0 165 0 165 92 92 93 93 164 0 165 0 -44 -46z m276 -83
c-72 -72 -133 -128 -137 -126 -3 3 -9 19 -13 36 -8 43 -63 95 -115 109 l-44
12 49 49 48 49 170 0 171 0 -129 -129z m42 -308 l-93 -93 -164 0 -165 0 44 46
c25 25 63 55 85 66 54 28 74 46 97 93 11 22 79 100 151 173 l132 132 3 -162 3
-162 -93 -93z m-504 126 c8 -43 63 -95 115 -109 l44 -12 -49 -49 -48 -49 -170
0 -171 0 129 129 c72 72 133 128 137 126 3 -3 9 -19 13 -36z m596 -144 l0 -75
-77 0 -77 0 74 75 c41 41 76 75 77 75 2 0 3 -34 3 -75z"/>
<path d="M1150 2990 l0 -260 25 0 25 0 0 -185 0 -185 525 0 525 0 0 185 0 185
45 0 45 0 0 260 0 260 -595 0 -595 0 0 -260z m199 23 c17 -10 31 -20 31 -23 0
-3 -14 -13 -31 -22 -32 -19 -133 -25 -143 -10 -3 5 4 23 14 40 17 27 26 32 59
32 22 0 53 -8 70 -17z m246 7 c3 -5 -2 -23 -12 -40 -14 -25 -24 -30 -56 -30
-35 0 -97 26 -97 40 0 3 12 13 28 22 30 19 127 25 137 8z m426 -7 c16 -10 29
-20 29 -23 0 -18 -64 -40 -114 -40 -61 0 -64 5 -41 50 13 26 21 30 56 30 23 0
54 -8 70 -17z m253 9 c2 -4 -5 -22 -16 -40 -17 -27 -26 -32 -58 -32 -34 0
-100 26 -100 40 0 3 12 12 28 22 28 17 137 25 146 10z m-44 -467 l0 -175 -505
0 -505 0 0 175 0 175 505 0 505 0 0 -175z"/>
<path d="M1246 2564 c-10 -27 -7 -34 18 -34 31 0 50 22 34 38 -17 17 -45 15
-52 -4z"/>
<path d="M1342 2568 c-8 -8 -9 -15 -1 -25 23 -27 59 -10 59 28 0 13 -44 11
-58 -3z"/>
<path d="M1516 2564 c-10 -27 -7 -34 18 -34 31 0 50 22 34 38 -17 17 -45 15
-52 -4z"/>
<path d="M1612 2568 c-8 -8 -9 -15 -1 -25 13 -15 49 -18 49 -4 0 5 3 16 6 25
5 12 0 16 -18 16 -13 0 -29 -5 -36 -12z"/>
<path d="M1790 2571 c0 -5 -3 -16 -6 -25 -5 -12 0 -16 19 -16 31 0 51 22 35
38 -14 14 -48 16 -48 3z"/>
<path d="M1882 2568 c-8 -8 -9 -15 -1 -25 23 -27 59 -10 59 28 0 13 -44 11
-58 -3z"/>
<path d="M2067 2573 c-4 -3 -7 -15 -7 -25 0 -22 42 -25 59 -5 19 23 -31 52
-52 30z"/>
<path d="M2162 2568 c-13 -13 2 -38 24 -38 12 0 34 29 34 44 0 11 -46 6 -58
-6z"/>
<path d="M323 2598 c-6 -7 -38 -61 -72 -120 l-63 -108 66 -113 c36 -63 66
-116 66 -120 0 -3 -29 -56 -65 -117 -36 -61 -65 -113 -65 -115 0 -2 29 -54 65
-115 36 -61 65 -114 65 -117 0 -4 -30 -57 -66 -120 l-66 -113 66 -113 c36 -63
66 -116 66 -120 0 -3 -29 -56 -65 -117 -36 -61 -65 -113 -65 -115 0 -2 29 -54
65 -115 36 -61 65 -114 65 -117 0 -4 -30 -57 -66 -120 l-66 -113 69 -118 69
-117 139 -2 140 -3 68 120 69 120 -66 114 c-36 62 -66 116 -66 118 0 3 29 56
65 117 36 62 65 114 65 116 0 2 -29 54 -65 116 -36 61 -65 114 -65 117 0 2 30
56 66 118 l66 114 -66 114 c-36 62 -66 116 -66 118 0 3 29 56 65 117 36 62 65
114 65 116 0 2 -29 54 -65 116 -36 61 -65 114 -65 117 0 2 30 56 66 118 l66
114 -69 120 -68 119 -136 1 c-98 0 -139 -4 -146 -12z m334 -120 l62 -108 -63
-107 -62 -108 -129 0 -129 0 -62 108 -63 107 51 88 c28 48 57 97 65 110 13 22
18 22 140 20 l127 -3 63 -107z m-5 -457 c31 -54 58 -103 60 -109 2 -6 -24 -58
-57 -116 l-60 -106 -130 0 -130 0 -60 104 c-32 57 -59 107 -59 111 0 4 27 54
59 111 l60 104 130 0 130 0 57 -99z m5 -473 l62 -108 -63 -107 -62 -108 -129
0 -129 0 -62 108 -63 107 51 88 c28 48 57 97 65 110 13 22 18 22 140 20 l127
-3 63 -107z m-5 -457 c31 -54 58 -103 60 -109 2 -6 -24 -58 -57 -116 l-60
-106 -130 0 -130 0 -60 104 c-32 57 -59 107 -59 111 0 4 27 54 59 111 l60 104
130 0 130 0 57 -99z m5 -473 l62 -108 -63 -107 -62 -108 -129 0 -129 0 -62
108 -63 107 51 88 c28 48 57 97 65 110 13 22 18 22 140 20 l127 -3 63 -107z"/>
<path d="M2893 2598 c-6 -7 -38 -61 -72 -120 l-63 -108 66 -113 c36 -63 66
-117 66 -122 0 -4 -29 -59 -66 -122 l-65 -114 66 -115 66 -115 -66 -115 -67
-114 66 -113 c36 -63 66 -116 66 -120 0 -3 -29 -56 -65 -117 -36 -61 -65 -113
-65 -115 0 -2 29 -54 65 -115 36 -61 65 -114 65 -117 0 -4 -30 -57 -66 -120
l-66 -113 69 -118 69 -117 139 -2 140 -3 68 120 69 120 -66 114 c-36 62 -66
116 -66 118 0 3 29 56 65 117 36 62 65 114 65 116 0 2 -29 54 -65 116 -36 61
-65 114 -65 117 0 2 30 56 66 118 l66 114 -66 114 -67 115 66 115 67 116 -66
113 c-36 63 -66 117 -66 122 0 4 30 59 66 121 l66 114 -69 120 -68 119 -136 1
c-98 0 -139 -4 -146 -12z m334 -120 l62 -108 -63 -107 -62 -108 -129 0 -129 0
-62 108 -63 107 51 88 c28 48 57 97 65 110 13 22 18 22 140 20 l127 -3 63
-107z m-1 -471 l62 -108 -62 -110 -61 -109 -130 3 -130 2 -61 105 c-70 120
-72 95 17 246 l50 85 127 -3 126 -3 62 -108z m1 -459 l62 -108 -63 -107 -62
-108 -129 0 -129 0 -62 108 -63 107 51 88 c28 48 57 97 65 110 13 22 18 22
140 20 l127 -3 63 -107z m-5 -457 c31 -54 58 -103 60 -109 2 -6 -24 -58 -57
-116 l-60 -106 -130 0 -130 0 -60 104 c-32 57 -59 107 -59 111 0 4 27 54 59
111 l60 104 130 0 130 0 57 -99z m5 -473 l62 -108 -63 -107 -62 -108 -129 0
-129 0 -62 108 -63 107 51 88 c28 48 57 97 65 110 13 22 18 22 140 20 l127 -3
63 -107z"/>
<path d="M850 1840 l0 -350 360 0 360 0 0 350 0 350 -360 0 -360 0 0 -350z
m700 0 l0 -330 -340 0 -340 0 0 330 0 330 340 0 340 0 0 -330z"/>
<path d="M1936 2174 c-3 -9 -6 -166 -6 -350 l0 -334 360 0 360 0 0 350 0 350
-354 0 c-313 0 -355 -2 -360 -16z m694 -334 l0 -330 -340 0 -340 0 0 330 0
330 340 0 340 0 0 -330z"/>
<path d="M850 815 l0 -355 360 0 360 0 0 355 0 355 -360 0 -360 0 0 -355z
m700 0 l0 -335 -340 0 -340 0 0 335 0 335 340 0 340 0 0 -335z"/>
<path d="M1930 815 l0 -355 360 0 360 0 0 355 0 355 -360 0 -360 0 0 -355z
m700 0 l0 -335 -340 0 -340 0 0 335 0 335 340 0 340 0 0 -335z"/>
</g>
</svg>
